<mxfile host="app.diagrams.net" modified="2024-05-07T13:55:16.822Z" agent="Mozilla/5.0 (Windows NT 10.0; Win64; x64; rv:125.0) Gecko/20100101 Firefox/125.0" version="24.3.1" etag="UOzzc8nWYO2EDKNnLZ9Z" type="github">
  <diagram name="Seite-1" id="RQ9AAfCMmcaWtDsAImCD">
    <mxGraphModel>
      <root>
        <mxCell id="0" />
        <mxCell id="1" parent="0" />
      </root>
    </mxGraphModel>
  </diagram>
</mxfile>
